<?xml version="1.0" encoding="UTF-8" standalone="no"?>
<svg
   xmlns:dc="http://purl.org/dc/elements/1.1/"
   xmlns:cc="http://creativecommons.org/ns#"
   xmlns:rdf="http://www.w3.org/1999/02/22-rdf-syntax-ns#"
   xmlns:svg="http://www.w3.org/2000/svg"
   xmlns="http://www.w3.org/2000/svg"
   xmlns:sodipodi="http://sodipodi.sourceforge.net/DTD/sodipodi-0.dtd"
   xmlns:inkscape="http://www.inkscape.org/namespaces/inkscape"
   version="1.1"
   id="svg2"
   xml:space="preserve"
   width="722.10913"
   height="326.74893"
   viewBox="0 0 722.10913 326.74893"
   sodipodi:docname="logo.svg"
   inkscape:version="1.0.2 (e86c870879, 2021-01-15)"><metadata
     id="metadata8"><rdf:RDF><cc:Work
         rdf:about=""><dc:format>image/svg+xml</dc:format><dc:type
           rdf:resource="http://purl.org/dc/dcmitype/StillImage" /><dc:title></dc:title></cc:Work></rdf:RDF></metadata><defs
     id="defs6"><clipPath
       clipPathUnits="userSpaceOnUse"
       id="clipPath18"><path
         d="M 0,0 H 2500 V 2531.25 H 0 Z"
         clip-rule="evenodd"
         id="path16" /></clipPath><clipPath
       clipPathUnits="userSpaceOnUse"
       id="clipPath30"><path
         d="M 0,0 H 2500 V 2500 H 0 Z"
         clip-rule="evenodd"
         id="path28" /></clipPath><clipPath
       clipPathUnits="userSpaceOnUse"
       id="clipPath42"><path
         d="M 0,0 H 2500 V 2500 H 0 Z"
         clip-rule="evenodd"
         id="path40" /></clipPath><clipPath
       clipPathUnits="userSpaceOnUse"
       id="clipPath54"><path
         d="M 120.12657,813.52832 H 2379.5016 V 1919.7783 H 120.12657 Z"
         clip-rule="evenodd"
         id="path52" /></clipPath></defs><sodipodi:namedview
     pagecolor="#ffffff"
     bordercolor="#666666"
     borderopacity="1"
     objecttolerance="10"
     gridtolerance="10"
     guidetolerance="10"
     inkscape:pageopacity="0"
     inkscape:pageshadow="2"
     inkscape:window-width="1920"
     inkscape:window-height="1025"
     id="namedview4"
     showgrid="false"
     fit-margin-top="0"
     fit-margin-left="0"
     fit-margin-right="0"
     fit-margin-bottom="0"
     inkscape:zoom="0.37918601"
     inkscape:cx="599.09788"
     inkscape:cy="-76.71248"
     inkscape:window-x="0"
     inkscape:window-y="31"
     inkscape:window-maximized="1"
     inkscape:current-layer="g10"
     inkscape:document-rotation="0" /><g
     id="g10"
     inkscape:groupmode="layer"
     inkscape:label="itter"
     transform="matrix(0.31999998,0,0,0.31999998,-38.904758,-268.56103)"><g
       id="g48"><g
         id="g56"
         transform="matrix(49.716705,0,0,50.993519,5575.4497,1782.7354)"><path
           d="m -106.42,-18.502001 c 6.305,0 8.907999,0.166001 15.844004,10.4209997 0,0 3.739997,4.9590001 8.278999,4.7069998 0,0 3.111999,0.6700001 5.883003,-5.7150002 2.774002,-6.3879993 5.042999,-9.9180003 12.103996,-8.9940003 0,0 -3.277999,2.857 -3.740997,4.076 -0.461998,1.219 -7.970001,10.2960006 -12.073997,10.9259998 0.601997,0.1679999 1.444,0.3770001 2.869003,0.125 0,0 1.471001,0.086 1.703003,0.799 -1.448998,-0.125 -6.239998,1.30400001 -7.248001,2.0610001 -1.006996,0.759 -4.463997,2.779 -7.234001,0.71799999 0.592002,-0.087 3.910003,-0.69800007 5.444999,-2.17700009 -2.582,0.03 -6.866996,-0.8109999 -10.064003,-3.7939997 -3.191002,-2.9840002 -10.925998,-11.9780001 -15.044998,-12.6499991 l 3.279,-0.503"
           style="fill:#58227d;fill-opacity:1;fill-rule:nonzero;stroke:none"
           id="path58" /></g></g></g></svg>
