<?xml version="1.0" encoding="UTF-8" standalone="no"?>
<svg
   xmlns:dc="http://purl.org/dc/elements/1.1/"
   xmlns:cc="http://creativecommons.org/ns#"
   xmlns:rdf="http://www.w3.org/1999/02/22-rdf-syntax-ns#"
   xmlns:svg="http://www.w3.org/2000/svg"
   xmlns="http://www.w3.org/2000/svg"
   xmlns:sodipodi="http://sodipodi.sourceforge.net/DTD/sodipodi-0.dtd"
   xmlns:inkscape="http://www.inkscape.org/namespaces/inkscape"
   version="1.1"
   id="svg885"
   width="710.40002"
   height="205.44"
   viewBox="0 0 710.40002 205.44"
   sodipodi:docname="logo-full.svg"
   inkscape:version="1.0.2 (e86c870879, 2021-01-15)">
  <metadata
     id="metadata891">
    <rdf:RDF>
      <cc:Work
         rdf:about="">
        <dc:format>image/svg+xml</dc:format>
        <dc:type
           rdf:resource="http://purl.org/dc/dcmitype/StillImage" />
        <dc:title></dc:title>
      </cc:Work>
    </rdf:RDF>
  </metadata>
  <defs
     id="defs889" />
  <sodipodi:namedview
     pagecolor="#ffffff"
     bordercolor="#666666"
     borderopacity="1"
     objecttolerance="10"
     gridtolerance="10"
     guidetolerance="10"
     inkscape:pageopacity="0"
     inkscape:pageshadow="2"
     inkscape:window-width="1920"
     inkscape:window-height="1025"
     id="namedview887"
     showgrid="false"
     inkscape:zoom="1.6173986"
     inkscape:cx="355.20001"
     inkscape:cy="102.72"
     inkscape:window-x="0"
     inkscape:window-y="31"
     inkscape:window-maximized="1"
     inkscape:current-layer="g893" />
  <g
     inkscape:groupmode="layer"
     inkscape:label="Image"
     id="g893">
    <path
       style="fill:#58227e;stroke:none;stroke-width:0.32"
       d="m -0.0380203,5.0204867 v 0.32 C 9.30054,6.1033267 18.950589,12.559557 26.521981,17.607137 c 18.1952,12.13021 34.168321,27.05879 49.920001,42.120865 18.428161,17.62112 35.813118,36.31136 53.427518,54.732478 10.1888,10.65536 20.0816,21.69952 32.01248,30.4848 25.08385,18.47104 56.92961,28.3952 88.00001,28.3952 -9.4736,9.06688 -22.24896,13.8224 -34.56,17.608 -6.24128,1.91904 -12.98656,3.95552 -19.52,4.472 2.64288,3.19776 7.67264,5.27392 11.52,6.60992 11.00288,3.82048 22.8752,3.35936 33.92,-0.1008 7.08192,-2.21856 13.81472,-5.28 20.16,-9.13408 4.12256,-2.504 7.83232,-5.57824 12.16,-7.7424 12.70752,-6.35456 26.89632,-10.47616 40.64,-13.912 5.8048,-1.45152 11.6672,-2.74592 17.6,-3.56064 2.6464,-0.36352 5.6992,-0.94368 8.32,-0.32 -0.8096,-4.47776 -6.3328,-6.35968 -10.24,-7.28448 -6.7648,-1.6016 -13.02688,0.32416 -19.84,0.2432 -5.05536,-0.0602 -9.77408,-1.80736 -14.72,-2.23872 v -0.32 c 19.83168,-5.13312 36.2272,-18.46944 51.2,-31.94592 22.1024,-19.89376 42.5376,-42.333438 60.1984,-66.294078 4.8928,-6.63968 8.0928,-14.250555 12.9632,-20.799995 6.3392,-8.52535 13.888,-16.33431 21.5584,-23.6674 3.648,-3.48928 8.288,-6.75702 11.2,-10.8926003 -12.4992,-0.98644 -24.944,-2.27618 -37.44,-0.18074 -32.7904,5.4988203 -53.4496,30.0005803 -67.76,58.4207353 -11.4272,22.6944 -19.2256,47.664318 -34.59936,68.159998 -7.41728,9.88864 -17.26464,19.73728 -29.48064,23.22336 -4.928,1.40608 -9.96672,1.12096 -15.04,1.09632 -11.552,-0.0557 -22.84352,-4.28576 -32.96,-9.51712 -17.05024,-8.81664 -32.31072,-22.74528 -44.024,-37.84256 C 181.01319,94.370242 172.60006,79.941762 162.5591,66.780482 147.1543,46.588807 130.15334,25.942687 107.80198,13.157287 90.709823,3.3802567 72.049982,1.0524567 52.761982,0.2078867 c -10.433281,-0.45684 -20.382081,-0.31719 -30.720001,1.20568 -7.140001,1.05178 -15.2059214,1.43316 -22.0800013,3.60692 M 468.12199,74.460482 c -9.4976,24.624958 -16.032,51.319678 -30.72,73.599998 -3.6384,5.51744 -8.1312,11.97664 -14.72,14.07072 -2.9696,0.94432 -6.6208,1.23424 -8.8928,-1.2848 -4.5856,-5.08512 -1.52,-15.04864 0.1184,-20.78592 5.1296,-17.97696 12.0128,-35.51872 18.2752,-53.119998 1.84,-5.16448 5.4016,-11.47808 5.7888,-16.96 0.2144,-3.07232 -3.2864,-4.95904 -6.0096,-4.30912 -2.6816,0.63968 -3.36,3.32288 -4.2208,5.58912 -2.0256,5.3248 -3.9136,10.70624 -6.0192,16 -6.4576,16.247358 -12.656,32.948798 -16.9184,49.919998 -1.9744,7.85088 -4.288,17.08608 -1.2992,24.96 7.3312,19.32 33.8944,7.992 39.9776,-6.4 h 0.32 c 0.6592,15.27264 15.7344,19.608 28.16,14.57504 8.1024,-3.2816 13.3344,-9.76544 18.88,-16.17504 0,2.54144 0.3264,4.95168 1.184,7.36 5.6736,15.94112 25.5552,11.91904 35.936,3.37152 3.504,-2.8848 6.63361,-6.44512 9.31841,-10.09152 1.5392,-2.09376 2.7488,-4.73664 4.7616,-6.4 0.0736,3.51904 1.4432,7.22304 3.2032,10.24 9.9968,17.12448 32.7488,16.45248 48.3168,7.90208 20.8576,-11.45408 30.4864,-37.29632 39.6352,-57.82208 2.9376,-6.5936 8.096,-13.989438 9.3248,-21.119998 l 24.64,8.96 c -3.8592,11.863358 -8.1504,23.566078 -11.7504,35.519998 -2.1344,7.08832 -4.736,14.88864 -4.2208,22.4 0.3008,4.37632 1.232,8.9296 3.9808,12.48 5.4688,7.06432 15.9136,6.53536 23.1904,2.79712 13.0976,-6.7296 20.1344,-22.86176 26.3168,-35.43712 1.7344,-3.52384 7.0752,-11.44864 3.056,-14.83584 -4.304,-3.62592 -7.5168,1.0496 -9.1136,4.59584 -5.0336,11.16576 -10.384,24.5696 -19.312,33.2512 -3.9072,3.79872 -13.4848,9.20224 -17.2512,2.26752 -2.416,-4.44544 -0.9952,-10.36512 -0.08,-15.03872 2.4096,-12.27168 7.4208,-24.31488 11.3696,-36.16 1.4912,-4.46624 6.7648,-13.116798 3.9808,-17.586238 -1.5808,-2.54336 -6.1984,-3.20224 -8.8864,-3.98944 -7.552,-2.21152 -14.8064,-6.3808 -22.4,-8.18432 1.8752,-5.86624 4.368,-11.96512 3.3792,-18.24 -1.488,-9.455035 -11.7056,-14.391355 -20.0192,-9.356475 -8.3968,5.084155 -8.2944,17.217595 -2.8032,24.396475 1.3952,1.82496 2.9888,3.51872 4.7232,5.02752 0.8064,0.70304 2.3488,1.5072 2.4928,2.68128 0.2912,2.39936 -2.3712,6.46336 -3.3536,8.6112 l -9.7984,21.439998 c -7.7152,16.8032 -16.48,38.94688 -34.7808,46.7152 -11.4464,4.8592 -28.7552,4.5584 -33.696,-9.2752 -1.5168,-4.24736 -1.4432,-9.0192 -0.9152,-13.44 0.3552,-2.96032 0.6592,-6.52672 1.9232,-9.2624 0.848,-1.832 3.4432,-1.91424 5.168,-2.39328 4.7648,-1.32416 9.4592,-2.84544 14.08,-4.60288 13.3536,-5.07872 29.1904,-12.5696 36.3808,-25.661438 6.3232,-11.51136 3.648,-26.62432 -10.7808,-29.24352 -12.8608,-2.3344 -24.128,5.35232 -32.08,14.84352 -14.5504,17.367678 -19.2288,39.222078 -30.2304,58.559998 -4.71041,8.2816 -11.05601,18.14112 -20.24961,21.8864 -3.1648,1.28896 -7.9584,2.4624 -11.2,0.8336 -7.1392,-3.58688 -3.3888,-15.672 -1.7856,-21.44 4.4032,-15.84 10.2048,-31.28992 15.8496,-46.719998 1.5168,-4.14848 3.072,-8.2992 4.496,-12.48 0.6432,-1.89504 1.0336,-4.70496 2.2688,-6.29824 1.0176,-1.31296 3.9392,-0.74176 5.4112,-0.74176 4.27841,0 11.06881,1.29376 15.04001,-0.32288 3.7088,-1.51008 3.584,-7.01824 -0.003,-8.60832 -1.5808,-0.70016 -3.7472,-0.3488 -5.4368,-0.3488 h -11.52001 c 2.8448,-10.42016 9.08481,-20.695355 10.72641,-31.359995 0.6752,-4.38503 -5.2608,-7.56458 -8.30721,-4.09162 -1.68,1.91306 -2.2176,5.25834 -3.0752,7.61162 -2.2112,6.04576 -4.3488,12.13344 -6.384,18.239995 -0.7584,2.27648 -1.5584,7.92352 -3.6448,9.27104 -2.1184,1.36608 -7.6224,0.32896 -10.1152,0.32896 h -26.24 c 2.8416,-10.40704 8.1312,-20.223355 10.592,-30.719995 0.9696,-4.13674 -3.536,-7.92765 -7.3632,-5.43703 -2.4896,1.62077 -3.1328,6.33047 -4.128,8.95703 -2.1952,5.79904 -4.1792,11.71744 -6.1408,17.599995 -0.8928,2.67968 -1.4688,6.2176 -3.0144,8.59264 -1.0176,1.56576 -3.6928,1.00736 -5.3056,1.00736 -4.8416,0 -18.1696,-2.42688 -16.8928,5.76 0.2816,1.7984 1.6576,3.16832 3.4528,3.45152 4.8832,0.77056 10.416,0.06848 15.36,0.06848 m -26.88,-35.690235 c -10.2944,1.92544 -7.2288,16.881595 2.88,15.104955 9.6256,-1.691515 6.6464,-16.887035 -2.88,-15.104955 M 637.722,73.180482 c -3.2416,-2.28448 -8.3616,-9.95776 -4.1184,-13.62592 5.712,-4.93632 6.864,4.66912 5.9008,8.18592 -0.5024,1.84032 -1.008,3.69408 -1.7824,5.44 m -122.56001,1.28 c -2.3648,8.66112 -6.048,17.13984 -9.0592,25.599998 -6.0128,16.89824 -12.4288,34.952 -23.584,49.28 -4.7136,6.05056 -10.3936,11.8576 -18.2368,13.2432 -2.6944,0.47648 -6.3936,0.65376 -8.5792,-1.25344 -4.7712,-4.15872 -2.1056,-13.57024 -0.8192,-18.70976 4.1984,-16.79584 10.7232,-33.0016 16.5376,-49.279998 1.5616,-4.37216 3.232,-8.71616 4.7008,-13.12 0.48,-1.4368 0.8896,-4.48864 2.144,-5.43104 1.856,-1.3904 7.7216,-0.32896 10.016,-0.32896 h 26.88 M 557.082,115.74048 c 4.464,-13.1152 13.376,-29.776958 25.28,-37.411198 4.4832,-2.8752 14.9024,-5.90944 18.992,-0.6352 3.9552,5.10016 -0.7264,13.72832 -4.3008,17.5664 -7.2736,7.808958 -17.7568,12.332478 -27.4912,16.192318 -3.9456,1.56384 -8.2688,3.6656 -12.48,4.28768 z"
       id="path897" />
  </g>
</svg>
